<?xml version="1.0" standalone="no"?>
<!DOCTYPE svg PUBLIC "-//W3C//DTD SVG 20010904//EN"
 "http://www.w3.org/TR/2001/REC-SVG-20010904/DTD/svg10.dtd">
<svg version="1.0" xmlns="http://www.w3.org/2000/svg"
 width="512.000000pt" height="512.000000pt" viewBox="0 0 512.000000 512.000000"
 preserveAspectRatio="xMidYMid meet">

<g transform="translate(0.000000,512.000000) scale(0.100000,-0.100000)"
fill="#000000" stroke="none">
<path d="M2395 5114 c-385 -42 -650 -116 -955 -269 -296 -148 -599 -380 -797
-610 -338 -394 -555 -871 -620 -1364 -21 -163 -21 -472 1 -631 79 -579 346
-1109 760 -1514 381 -372 879 -625 1388 -706 181 -28 576 -29 760 0 378 58
693 180 1013 392 166 111 262 188 390 314 177 175 276 297 386 483 213 358
334 701 374 1063 56 501 -29 967 -259 1423 -190 375 -467 697 -813 943 -334
237 -740 401 -1133 457 -112 16 -414 27 -495 19z m836 -522 c117 -47 211 -144
248 -258 21 -64 21 -73 21 -1231 l0 -1167 -204 -380 c-112 -210 -232 -435
-266 -501 -79 -150 -287 -541 -309 -578 l-16 -27 -148 2 -149 3 -102 190
c-122 227 -520 975 -601 1130 -32 61 -65 121 -74 135 -14 23 -15 140 -13 1195
3 1280 0 1215 62 1322 29 51 103 118 161 149 82 42 108 43 734 41 599 -2 600
-2 656 -25z m-1877 -966 c60 -25 97 -99 82 -161 -4 -14 -22 -43 -41 -63 l-33
-37 -236 0 -236 0 -32 33 c-30 30 -33 38 -33 95 0 70 19 106 70 131 42 21 409
23 459 2z m2902 -27 c64 -64 57 -151 -16 -213 l-32 -26 -222 0 c-211 0 -225 1
-250 21 -82 64 -73 198 15 242 29 15 64 17 251 15 l218 -3 36 -36z m-2895
-690 c74 -37 100 -143 51 -209 -39 -54 -69 -60 -287 -60 -235 0 -255 6 -293
82 -21 41 -22 51 -12 90 13 48 31 72 75 99 27 17 53 19 228 19 180 0 201 -2
238 -21z m2853 7 c75 -31 108 -147 60 -213 -42 -57 -69 -63 -287 -63 -222 0
-253 7 -287 62 -42 69 -17 165 52 208 30 18 51 20 231 20 146 0 206 -4 231
-14z m-2843 -739 c76 -50 88 -150 25 -213 -46 -46 -89 -54 -281 -54 -144 0
-176 3 -211 19 -78 36 -108 134 -63 207 37 60 51 63 285 64 203 0 212 -1 245
-23z m2865 4 c63 -39 82 -139 36 -200 -44 -59 -70 -66 -274 -69 -169 -3 -191
-2 -231 16 -55 24 -79 58 -84 120 -5 60 20 111 67 134 30 15 65 18 245 18 188
0 213 -2 241 -19z"/>
<path d="M1964 4326 c-17 -8 -40 -26 -52 -41 -22 -28 -22 -29 -22 -566 l0
-539 670 0 670 0 0 528 c0 589 1 576 -70 614 -32 17 -71 18 -600 18 -450 -1
-571 -4 -596 -14z m1052 -452 c48 -35 66 -67 66 -118 0 -58 -26 -103 -72 -127
-32 -18 -64 -19 -448 -19 -328 0 -419 3 -446 14 -107 45 -111 202 -5 254 43
22 50 22 461 20 403 -3 417 -4 444 -24z"/>
<path d="M1990 2893 l-105 -4 3 -442 4 -442 169 -317 c93 -175 205 -383 249
-463 44 -80 80 -147 80 -148 0 -1 38 -73 84 -161 l84 -159 37 69 c191 359 349
653 359 669 8 11 39 70 71 130 32 61 91 172 132 247 l73 138 0 445 0 445 -567
-2 c-313 -1 -615 -4 -673 -5z m615 -1184 c85 -24 140 -119 116 -201 -44 -145
-244 -170 -311 -39 -49 97 -9 197 95 238 39 15 52 15 100 2z"/>
</g>
</svg>
