<?xml version="1.0" standalone="no"?>
<!DOCTYPE svg PUBLIC "-//W3C//DTD SVG 20010904//EN"
 "http://www.w3.org/TR/2001/REC-SVG-20010904/DTD/svg10.dtd">
<svg version="1.0" xmlns="http://www.w3.org/2000/svg"
 width="512.000000pt" height="512.000000pt" viewBox="0 0 512.000000 512.000000"
 preserveAspectRatio="xMidYMid meet">

<g transform="translate(0.000000,512.000000) scale(0.100000,-0.100000)"
fill="#000000" stroke="none">
<path d="M2380 4064 c-221 -40 -347 -80 -509 -165 -153 -80 -266 -163 -386
-284 -577 -581 -590 -1488 -29 -2084 416 -443 1022 -597 1592 -405 259 87 568
313 724 531 291 406 377 875 242 1321 -163 539 -599 939 -1164 1067 -73 17
-408 30 -470 19z m568 -299 c35 -11 65 -29 96 -61 78 -78 76 -54 76 -826 l0
-679 -151 -282 c-84 -155 -190 -353 -236 -440 l-85 -158 -91 3 -90 3 -234 435
-233 435 3 705 c2 666 3 707 21 740 35 66 87 110 156 131 14 4 181 8 371 8
282 1 355 -2 397 -14z m-1083 -590 c44 -43 30 -114 -26 -134 -48 -17 -234 -14
-268 4 -49 25 -57 90 -16 130 23 24 29 25 155 25 126 0 132 -1 155 -25z m1700
0 c34 -33 34 -83 -1 -116 -24 -23 -32 -24 -160 -24 -125 0 -135 1 -156 22 -33
33 -30 89 6 119 25 23 35 24 157 24 125 0 131 -1 154 -25z m-1700 -420 c17
-16 25 -35 25 -60 0 -25 -8 -44 -25 -60 -23 -24 -30 -25 -152 -25 -139 0 -165
8 -184 56 -11 30 10 87 38 103 10 6 74 11 146 11 123 0 129 -1 152 -25z m1700
0 c17 -16 25 -35 25 -60 0 -25 -8 -44 -25 -60 -23 -24 -29 -25 -155 -25 l-132
0 -30 30 c-25 26 -29 36 -24 63 3 18 17 42 32 55 23 20 35 22 155 22 125 0
131 -1 154 -25z m-1700 -430 c37 -36 34 -86 -6 -119 -29 -25 -36 -26 -145 -26
-153 0 -184 15 -184 91 0 18 10 39 25 54 23 24 29 25 155 25 126 0 132 -1 155
-25z m1700 0 c35 -34 33 -78 -4 -116 -29 -29 -31 -29 -145 -29 -132 0 -159 7
-181 49 -19 38 -11 75 22 101 23 18 41 20 155 20 124 0 130 -1 153 -25z"/>
<path d="M2182 3590 c-22 -21 -22 -24 -22 -340 l0 -320 400 0 400 0 0 314 c0
302 -1 314 -21 340 l-20 26 -358 0 c-346 0 -358 -1 -379 -20z m663 -265 c34
-33 34 -83 -1 -116 -25 -24 -28 -24 -257 -27 -254 -3 -289 0 -318 29 -28 28
-25 84 6 114 l24 25 261 0 261 0 24 -25z"/>
<path d="M2160 2499 l0 -261 197 -367 c108 -201 199 -368 201 -371 3 -3 6 0 8
5 4 10 102 193 287 538 l107 198 0 260 0 259 -400 0 -400 0 0 -261z m456 -454
c28 -19 48 -69 40 -101 -28 -108 -196 -91 -196 21 0 74 95 123 156 80z"/>
</g>
</svg>
